<?xml version="1.0" encoding="UTF-8" standalone="no"?>
<!DOCTYPE svg PUBLIC "-//W3C//DTD SVG 1.1//EN" "http://www.w3.org/Graphics/SVG/1.1/DTD/svg11.dtd">
<svg width="100%" height="100%" viewBox="0 0 1280 1280" version="1.1" xmlns="http://www.w3.org/2000/svg" xmlns:xlink="http://www.w3.org/1999/xlink" xml:space="preserve" style="fill-rule:evenodd;clip-rule:evenodd;stroke-linejoin:round;stroke-miterlimit:1.41421;">
    <g id="Icon" transform="matrix(1,0,0,1,-2.52997,-5.47003)">
        <g transform="matrix(1.04641,0,0,1.04641,-61.193,-53.9409)">
            <g id="Circle">
                <circle cx="672.509" cy="668.388" r="611.612" style="fill:rgb(69,160,175);"/>
            </g>
        </g>
        <g id="Window" transform="matrix(0.614632,0,0,0.614632,249.192,238.106)">
            <g transform="matrix(1.73505,0,0,1.73505,-470.472,-470.429)">
                <g id="Background">
                    <g id="Layer2">
                        <path d="M985.837,315.834C985.837,303.887 976.137,294.188 964.19,294.188L315.81,294.188C303.863,294.188 294.163,303.887 294.163,315.834L294.163,964.166C294.163,976.113 303.863,985.812 315.81,985.812L964.19,985.812C976.137,985.812 985.837,976.113 985.837,964.166L985.837,315.834Z" style="fill:rgb(38,50,56);"/>
                    </g>
                </g>
            </g>
            <g id="Editor-Window" transform="matrix(1,0,0,1,0,-42.341)">
                <g id="white-area" transform="matrix(1.73505,0,0,1.41279,-470.472,-110.406)">
                    <path d="M985.837,294.188L294.163,294.188L294.163,964.982C294.163,976.479 301.763,985.812 311.124,985.812L969.92,985.812C978.705,985.812 985.837,977.053 985.837,966.265L985.837,294.188Z" style="fill:rgb(223,241,237);"/>
                </g>
                <g id="Prompt" transform="matrix(1.44285,0,0,1.44285,-240.464,-310.127)">
                    <path d="M340.662,573.779L340.662,656.74L456.403,723.175L340.208,789.193L340.208,873.004L540.289,756.181L540.295,686.657L340.662,573.779Z" style="fill:rgb(38,50,56);"/>
                </g>
                <g id="Caret" transform="matrix(1.44285,0,0,1.44285,-240.464,-310.127)">
                    <path d="M607.65,807.128L607.65,873.004L939.909,873.004L939.909,807.419L607.65,807.128Z" style="fill:rgb(38,50,56);"/>
                </g>
            </g>
            <g id="Window-Buttons">
                <circle cx="150.837" cy="153.34" r="46.432" style="fill:rgb(255,96,89);"/>
                <g transform="matrix(1,0,0,1,139.878,0)">
                    <circle cx="150.837" cy="153.34" r="46.432" style="fill:rgb(255,190,47);"/>
                </g>
                <g transform="matrix(1,0,0,1,279.766,0)">
                    <circle cx="150.837" cy="153.34" r="46.432" style="fill:rgb(41,201,65);"/>
                </g>
            </g>
        </g>
    </g>
</svg>
